<?xml version="1.0" standalone="no"?>
<!DOCTYPE svg PUBLIC "-//W3C//DTD SVG 20010904//EN"
 "http://www.w3.org/TR/2001/REC-SVG-20010904/DTD/svg10.dtd">
<svg version="1.0" xmlns="http://www.w3.org/2000/svg"
 width="700.000000pt" height="700.000000pt" viewBox="0 0 700.000000 700.000000"
 preserveAspectRatio="xMidYMid meet">
<metadata>
Created by potrace 1.11, written by Peter Selinger 2001-2013
</metadata>
<g transform="translate(0.000000,700.000000) scale(0.100000,-0.100000)"
fill="#000000" stroke="none">
<path d="M362 6992 c6 -15 3132 -3832 3138 -3832 6 0 3132 3817 3138 3832 2 4
-1410 8 -3138 8 -1728 0 -3140 -4 -3138 -8z"/>
<path d="M0 3500 c0 -2713 2 -3142 14 -3130 29 31 2556 3124 2556 3130 0 6
-2527 3099 -2556 3130 -12 12 -14 -417 -14 -3130z"/>
<path d="M5713 5074 c-706 -862 -1283 -1571 -1283 -1574 0 -3 577 -712 1283
-1574 l1282 -1569 3 1572 c1 864 1 2278 0 3142 l-3 1572 -1282 -1569z"/>
<path d="M1630 1563 c-696 -851 -1266 -1550 -1268 -1555 -2 -4 1410 -8 3137
-8 1728 0 3141 2 3141 5 0 10 -2530 3095 -2537 3094 -4 -1 -140 -164 -301
-361 -161 -197 -297 -358 -302 -358 -6 0 -460 546 -595 716 -7 10 -343 -394
-1275 -1533z"/>
</g>
</svg>
