<?xml version="1.0" standalone="no"?>
<!DOCTYPE svg PUBLIC "-//W3C//DTD SVG 20010904//EN"
 "http://www.w3.org/TR/2001/REC-SVG-20010904/DTD/svg10.dtd">
<svg version="1.0" xmlns="http://www.w3.org/2000/svg"
 width="700.000000pt" height="700.000000pt" viewBox="0 0 700.000000 700.000000"
 preserveAspectRatio="xMidYMid meet">
<metadata>
Created by potrace 1.11, written by Peter Selinger 2001-2013
</metadata>
<g transform="translate(0.000000,700.000000) scale(0.100000,-0.100000)"
fill="#000000" stroke="none">
<path d="M1921 5080 c864 -1056 1575 -1920 1579 -1920 4 0 715 864 1579 1920
l1571 1920 -3150 0 -3150 0 1571 -1920z"/>
<path d="M0 3500 c0 -3086 0 -3144 19 -3125 65 68 2545 3113 2545 3125 0 12
-2480 3057 -2545 3125 -19 19 -19 -39 -19 -3125z"/>
<path d="M5715 5079 c-703 -860 -1279 -1571 -1279 -1579 0 -8 576 -719 1279
-1579 l1280 -1565 3 1572 c1 865 1 2279 0 3144 l-3 1572 -1280 -1565z"/>
<path d="M1630 1563 c-696 -850 -1266 -1550 -1268 -1554 -2 -5 1407 -9 3137
-9 1728 0 3141 2 3141 5 0 5 -2492 3057 -2524 3092 -9 10 -80 -71 -310 -352
-164 -201 -302 -365 -306 -365 -4 0 -137 159 -295 353 -158 193 -293 358 -299
364 -9 10 -306 -347 -1276 -1534z"/>
</g>
</svg>
